# xmcd
#
# Track frame offsets:
#	150
#	17321
#	40450
#	65246
#	86417
#	105617
#	119688
#	141700
#	159874
#
# Disc length: 2382 seconds
#
# Revision: 0
# Processed by: cddbd v1.5PL3 Copyright (c) Steve Scherf et al.
# Submitted via: dBpowerAMP V4.0
#
DISCID=7a094c09
DTITLE=Ry Cooder - Bob Till You Drop
DYEAR=1900
DGENRE=Blues
TTITLE0=Little Sister
TTITLE1=Go Home, Girl
TTITLE2=The Very Thing That Makes You Rich
TTITLE3=I Think It's Going To Work Out Fine
TTITLE4=Down In Hollywood
TTITLE5=Look At Granny Run Run
TTITLE6=Trouble, You Can't Fool Me
TTITLE7=Don't Mess Up A Good Thing
TTITLE8=I Can't Win
EXTD=
EXTT0=
EXTT1=
EXTT2=
EXTT3=
EXTT4=
EXTT5=
EXTT6=
EXTT7=
EXTT8=
PLAYORDER=
